<svg xmlns="http://www.w3.org/2000/svg" style="display: none;">
    <symbol id="handmade" viewBox="0 0 24 24">
        <path d="M7 11.5C7 12.3284 6.32843 13 5.5 13C4.67157 13 4 12.3284 4 11.5C4 10.6716 4.67157 10 5.5 10C6.32843 10 7 10.6716 7 11.5Z"/>
        <path d="M5.5 17C6.32843 17 7 16.3284 7 15.5C7 14.6716 6.32843 14 5.5 14C4.67157 14 4 14.6716 4 15.5C4 16.3284 4.67157 17 5.5 17Z"/>
        <path d="M19 11.5C19 12.3284 18.3284 13 17.5 13C16.6716 13 16 12.3284 16 11.5C16 10.6716 16.6716 10 17.5 10C18.3284 10 19 10.6716 19 11.5Z"/>
        <path d="M17.5 17C18.3284 17 19 16.3284 19 15.5C19 14.6716 18.3284 14 17.5 14C16.6716 14 16 14.6716 16 15.5C16 16.3284 16.6716 17 17.5 17Z"/>
        <path d="M12 9C12.8284 9 13.5 8.32843 13.5 7.5C13.5 6.67157 12.8284 6 12 6C11.1716 6 10.5 6.67157 10.5 7.5C10.5 8.32843 11.1716 9 12 9Z"/>
        <path d="M13.5 11.5C13.5 12.3284 12.8284 13 12 13C11.1716 13 10.5 12.3284 10.5 11.5C10.5 10.6716 11.1716 10 12 10C12.8284 10 13.5 10.6716 13.5 11.5Z"/>
        <path d="M12 17C12.8284 17 13.5 16.3284 13.5 15.5C13.5 14.6716 12.8284 14 12 14C11.1716 14 10.5 14.6716 10.5 15.5C10.5 16.3284 11.1716 17 12 17Z"/>
    </symbol>

    <symbol id="custom" viewBox="0 0 24 24">
        <path d="M12 3L3 8L12 13L21 8L12 3Z"/>
        <path d="M3 12L12 17L21 12"/>
        <path d="M3 16L12 21L21 16"/>
    </symbol>

    <symbol id="quality" viewBox="0 0 24 24">
        <path d="M12 2L15.09 8.26L22 9.27L17 14.14L18.18 21.02L12 17.77L5.82 21.02L7 14.14L2 9.27L8.91 8.26L12 2Z"/>
    </symbol>

    <symbol id="location" viewBox="0 0 24 24">
        <path d="M12 2C8.13 2 5 5.13 5 9C5 14.25 12 22 12 22C12 22 19 14.25 19 9C19 5.13 15.87 2 12 2ZM12 11.5C10.62 11.5 9.5 10.38 9.5 9C9.5 7.62 10.62 6.5 12 6.5C13.38 6.5 14.5 7.62 14.5 9C14.5 10.38 13.38 11.5 12 11.5Z"/>
    </symbol>

    <symbol id="phone" viewBox="0 0 24 24">
        <path d="M20 15.5C18.8 15.5 17.5 15.3 16.4 14.9C16.3 14.9 16.2 14.9 16.1 14.9C15.8 14.9 15.6 15 15.4 15.2L13.2 17.4C10.4 15.9 8 13.6 6.6 10.8L8.8 8.6C9.1 8.3 9.2 7.9 9 7.6C8.7 6.5 8.5 5.2 8.5 4C8.5 3.5 8 3 7.5 3H4C3.5 3 3 3.5 3 4C3 13.4 10.6 21 20 21C20.5 21 21 20.5 21 20V16.5C21 16 20.5 15.5 20 15.5ZM19 12H21C21 7 17 3 12 3V5C15.9 5 19 8.1 19 12ZM15 12H17C17 9.2 14.8 7 12 7V9C13.7 9 15 10.3 15 12Z"/>
    </symbol>

    <symbol id="email" viewBox="0 0 24 24">
        <path d="M20 4H4C2.9 4 2.01 4.9 2.01 6L2 18C2 19.1 2.9 20 4 20H20C21.1 20 22 19.1 22 18V6C22 4.9 21.1 4 20 4ZM20 8L12 13L4 8V6L12 11L20 6V8Z"/>
    </symbol>

    <symbol id="arrow-left" viewBox="0 0 24 24">
        <path d="M15.41 7.41L14 6L8 12L14 18L15.41 16.59L10.83 12L15.41 7.41Z"/>
    </symbol>

    <symbol id="arrow-right" viewBox="0 0 24 24">
        <path d="M10 6L8.59 7.41L13.17 12L8.59 16.59L10 18L16 12L10 6Z"/>
    </symbol>
</svg> 