<?xml version="1.0" encoding="UTF-8"?>
<svg xmlns="http://www.w3.org/2000/svg" style="display: none;">
    <!-- Social Icons -->
    <symbol id="instagram" viewBox="0 0 24 24">
        <path d="M12 2.163c3.204 0 3.584.012 4.85.07 3.252.148 4.771 1.691 4.919 4.919.058 1.265.069 1.645.069 4.849 0 3.205-.012 3.584-.069 4.849-.149 3.225-1.664 4.771-4.919 4.919-1.266.058-1.644.07-4.85.07-3.204 0-3.584-.012-4.849-.07-3.26-.149-4.771-1.699-4.919-4.92-.058-1.265-.07-1.644-.07-4.849 0-3.204.013-3.583.07-4.849.149-3.227 1.664-4.771 4.919-4.919 1.266-.057 1.645-.069 4.849-.069zm0-2.163c-3.259 0-3.667.014-4.947.072-4.358.2-6.78 2.618-6.98 6.98-.059 1.281-.073 1.689-.073 4.948 0 3.259.014 3.668.072 4.948.2 4.358 2.618 6.78 6.98 6.98 1.281.058 1.689.072 4.948.072 3.259 0 3.668-.014 4.948-.072 4.354-.2 6.782-2.618 6.979-6.98.059-1.28.073-1.689.073-4.948 0-3.259-.014-3.667-.072-4.947-.196-4.354-2.617-6.78-6.979-6.98-1.281-.059-1.69-.073-4.949-.073zm0 5.838c-3.403 0-6.162 2.759-6.162 6.162s2.759 6.163 6.162 6.163 6.162-2.759 6.162-6.163c0-3.403-2.759-6.162-6.162-6.162zm0 10.162c-2.209 0-4-1.79-4-4 0-2.209 1.791-4 4-4s4 1.791 4 4c0 2.21-1.791 4-4 4zm6.406-11.845c-.796 0-1.441.645-1.441 1.44s.645 1.44 1.441 1.44c.795 0 1.439-.645 1.439-1.44s-.644-1.44-1.439-1.44z"/>
    </symbol>

    <symbol id="facebook" viewBox="0 0 24 24">
        <path d="M24 12.073c0-6.627-5.373-12-12-12s-12 5.373-12 12c0 5.99 4.388 10.954 10.125 11.854v-8.385h-3.047v-3.47h3.047v-2.642c0-3.007 1.792-4.669 4.533-4.669 1.312 0 2.686.235 2.686.235v2.953h-1.514c-1.491 0-1.956.925-1.956 1.874v2.25h3.328l-.532 3.47h-2.796v8.385c5.737-.9 10.125-5.864 10.125-11.854z"/>
    </symbol>

    <!-- Expertise Icons -->
    <symbol id="wheel" viewBox="0 0 48 48">
        <path d="M24 4C12.954 4 4 12.954 4 24s8.954 20 20 20 20-8.954 20-20S35.046 4 24 4zm0 36c-8.837 0-16-7.163-16-16S15.163 8 24 8s16 7.163 16 16-7.163 16-16 16zm0-28c-6.627 0-12 5.373-12 12s5.373 12 12 12 12-5.373 12-12-5.373-12-12-12zm0 20c-4.418 0-8-3.582-8-8s3.582-8 8-8 8 3.582 8 8-3.582 8-8 8z"/>
    </symbol>

    <symbol id="glaze" viewBox="0 0 48 48">
        <path d="M36 8h-24c-2.21 0-4 1.79-4 4v24c0 2.21 1.79 4 4 4h24c2.21 0 4-1.79 4-4v-24c0-2.21-1.79-4-4-4zm-24 28v-24h24l.001 24h-24.001z"/>
        <path d="M30 20h-12c-1.1 0-2 .9-2 2v8c0 1.1.9 2 2 2h12c1.1 0 2-.9 2-2v-8c0-1.1-.9-2-2-2z"/>
    </symbol>

    <symbol id="handcraft" viewBox="0 0 48 48">
        <path d="M38 8h-28c-2.21 0-4 1.79-4 4v24c0 2.21 1.79 4 4 4h28c2.21 0 4-1.79 4-4v-24c0-2.21-1.79-4-4-4zm-28 28v-24h28l.001 24h-28.001z"/>
        <path d="M24 16c-4.42 0-8 3.58-8 8s3.58 8 8 8 8-3.58 8-8-3.58-8-8-8zm0 12c-2.21 0-4-1.79-4-4s1.79-4 4-4 4 1.79 4 4-1.79 4-4 4z"/>
    </symbol>

    <symbol id="design" viewBox="0 0 48 48">
        <path d="M38.4 8h-28.8c-2.21 0-4 1.79-4 4v24c0 2.21 1.79 4 4 4h28.8c2.21 0 4-1.79 4-4v-24c0-2.21-1.79-4-4-4zm-2.4 24h-24v-16h24v16z"/>
        <path d="M24 20l-8 8h16z"/>
    </symbol>

    <!-- Product Info Icons -->
    <symbol id="materials" viewBox="0 0 48 48">
        <path d="M24 4l-16 8v12c0 11.05 6.96 21.18 16 24 9.04-2.82 16-12.95 16-24v-12l-16-8zm0 36c-6.67-2.79-12-11.23-12-20v-9.17l12-6 12 6v9.17c0 8.77-5.33 17.21-12 20z"/>
        <path d="M24 16c-4.42 0-8 3.58-8 8s3.58 8 8 8 8-3.58 8-8-3.58-8-8-8z"/>
    </symbol>

    <symbol id="care" viewBox="0 0 48 48">
        <path d="M24 4c-11.05 0-20 8.95-20 20s8.95 20 20 20 20-8.95 20-20-8.95-20-20-20zm0 36c-8.84 0-16-7.16-16-16s7.16-16 16-16 16 7.16 16 16-7.16 16-16 16z"/>
        <path d="M24 12c-6.63 0-12 5.37-12 12s5.37 12 12 12 12-5.37 12-12-5.37-12-12-12zm0 20c-4.42 0-8-3.58-8-8s3.58-8 8-8 8 3.58 8 8-3.58 8-8 8z"/>
    </symbol>

    <symbol id="shipping" viewBox="0 0 48 48">
        <path d="M40 16h-6v-4c0-2.21-1.79-4-4-4h-20c-2.21 0-4 1.79-4 4v20h4c0 3.31 2.69 6 6 6s6-2.69 6-6h12c0 3.31 2.69 6 6 6s6-2.69 6-6h4v-12l-6-8zm-30 22c-1.66 0-3-1.34-3-3s1.34-3 3-3 3 1.34 3 3-1.34 3-3 3zm18-12h-14v-12h14v12zm6 12c-1.66 0-3-1.34-3-3s1.34-3 3-3 3 1.34 3 3-1.34 3-3 3zm2-12h-4v-6h7.17l-3.17 6z"/>
    </symbol>

    <symbol id="returns" viewBox="0 0 48 48">
        <path d="M24 4c-11.05 0-20 8.95-20 20h-4l6 6 6-6h-4c0-8.84 7.16-16 16-16s16 7.16 16 16-7.16 16-16 16c-4.42 0-8.42-1.79-11.31-4.69l-2.83 2.83c3.84 3.84 9.13 6.21 14.97 6.21 11.05 0 20-8.95 20-20s-8.95-20-20-20z"/>
        <path d="M22 14v12l8.5 5.5 1.5-2.5-7-4.5v-10.5z"/>
    </symbol>

    <!-- Navigation Icons -->
    <symbol id="arrow-left" viewBox="0 0 24 24">
        <path d="M15.41 7.41L14 6l-6 6 6 6 1.41-1.41L10.83 12z"/>
    </symbol>

    <symbol id="arrow-right" viewBox="0 0 24 24">
        <path d="M10 6L8.59 7.41 13.17 12l-4.58 4.59L10 18l6-6z"/>
    </symbol>

    <!-- Feature Icons -->
    <symbol id="handmade" viewBox="0 0 24 24">
        <path d="M12 2C6.48 2 2 6.48 2 12s4.48 10 10 10 10-4.48 10-10S17.52 2 12 2zm0 18c-4.41 0-8-3.59-8-8s3.59-8 8-8 8 3.59 8 8-3.59 8-8 8zm-1-13h2v6h-2zm0 8h2v2h-2z"/>
    </symbol>

    <symbol id="custom" viewBox="0 0 24 24">
        <path d="M3 17.25V21h3.75L17.81 9.94l-3.75-3.75L3 17.25zM20.71 7.04c.39-.39.39-1.02 0-1.41l-2.34-2.34c-.39-.39-1.02-.39-1.41 0l-1.83 1.83 3.75 3.75 1.83-1.83z"/>
    </symbol>

    <symbol id="quality" viewBox="0 0 24 24">
        <path d="M12 2L2 9.6l3.3 10.2h13.4L22 9.6 12 2zm0 15.5c-3 0-5.5-2.5-5.5-5.5S9 6.5 12 6.5s5.5 2.5 5.5 5.5-2.5 5.5-5.5 5.5z"/>
    </symbol>
</svg> 