<svg width="190" height="40" viewBox="0 0 150 40" fill="none" xmlns="http://www.w3.org/2000/svg">
    <path d="M20 10C20 15.5228 15.5228 20 10 20C4.47715 20 0 15.5228 0 10C0 4.47715 4.47715 0 10 0C15.5228 0 20 4.47715 20 10Z" fill="white"/>
    <path d="M10 40C15.5228 40 20 35.5228 20 30C20 24.4772 15.5228 20 10 20C4.47715 20 0 24.4772 0 30C0 35.5228 4.47715 40 10 40Z" fill="white"/>
    <path d="M35 10L45 20H25L35 10Z" fill="white"/>
    <text x="50" y="25" font-family="Arial" font-size="20" font-weight="bold" fill="white">TerraPottery</text>
</svg>